<svg width="1272" height="323" viewBox="0 0 1272 323" fill="none" xmlns="http://www.w3.org/2000/svg">
<path d="M211.857 275.501V51.874C211.857 36.7623 207.207 24.7023 197.907 15.6934C188.898 6.68443 176.548 2.17969 160.854 2.17969V0H249.782V2.17969C243.68 2.17969 238.594 3.05137 234.525 4.79492C230.457 6.5386 227.259 9.73592 224.935 14.3857C222.61 18.7448 220.867 24.7022 219.704 32.2578C218.832 39.5231 218.396 48.8233 218.396 60.1572V322.581H205.318L37.9248 49.2588V270.706C37.9248 285.818 42.4295 297.879 51.4385 306.888C60.7381 315.897 73.2346 320.401 88.9277 320.401V322.581H0V320.401C6.10264 320.401 11.1883 319.53 15.2568 317.786C19.3253 316.042 22.5228 312.991 24.8477 308.632C27.1726 304.273 28.7707 298.46 29.6426 291.194C30.805 283.638 31.3867 274.193 31.3867 262.859V60.1572C31.3867 48.8233 30.805 39.5231 29.6426 32.2578C28.7708 24.7022 27.1724 18.7449 24.8477 14.3857C22.5227 9.73592 19.3254 6.5386 15.2568 4.79492C11.1883 3.05135 6.10269 2.17969 0 2.17969V0H44.0283L211.857 275.501Z" fill="url(#paint0_linear_51_4307)"/>
<path d="M484.539 72.7988H482.359C479.453 60.3024 475.966 49.8399 471.897 41.4121C467.829 32.9844 462.742 26.1548 456.64 20.9238C450.537 15.693 443.126 12.0606 434.408 10.0264C425.98 7.70146 415.809 6.53906 403.894 6.53906H362.917C349.258 6.53916 342.429 15.8385 342.429 34.4375V154.752H395.611C412.757 154.752 424.818 151.41 431.793 144.726C439.058 138.042 442.69 126.562 442.69 110.288H444.87V205.754H442.69C442.69 189.48 439.058 178 431.793 171.316C424.818 164.632 412.902 161.29 396.047 161.29H342.429V288.144C342.429 306.742 349.258 316.042 362.917 316.042H412.612C424.527 316.042 434.699 315.025 443.127 312.99C451.845 310.665 459.256 306.887 465.358 301.656C471.461 296.425 476.547 289.596 480.615 281.168C484.684 272.74 488.172 262.279 491.078 249.782H493.258L479.744 322.581H280.528V320.401C286.631 320.401 291.717 319.53 295.785 317.786C299.854 316.042 303.051 312.991 305.376 308.632C307.701 303.982 309.299 298.024 310.171 290.759C311.333 283.203 311.915 273.758 311.915 262.424V60.1572C311.915 48.8233 311.333 39.5231 310.171 32.2578C309.299 24.7022 307.701 18.7449 305.376 14.3857C303.051 10.0265 299.854 6.97512 295.785 5.23145C291.717 3.1972 286.631 2.17969 280.528 2.17969V0H471.025L484.539 72.7988Z" fill="url(#paint1_linear_51_4307)"/>
<path fill-rule="evenodd" clip-rule="evenodd" d="M631.328 0C663.296 1.47965e-05 688.724 5.81202 707.614 17.4365C726.504 28.7705 735.949 46.3533 735.949 70.1836C735.949 78.3206 734.35 85.5861 731.153 91.9795C727.957 98.3728 723.598 104.185 718.076 109.416C712.555 114.356 706.161 118.861 698.896 122.93C691.921 126.998 684.51 130.776 676.664 134.264C690.032 136.879 702.092 141.093 712.845 146.905C723.888 152.427 733.188 159.256 740.744 167.394C748.591 175.24 754.549 184.394 758.617 194.856C762.976 205.318 765.155 216.653 765.155 228.858C765.155 242.226 762.54 254.577 757.309 265.911C752.078 277.245 744.377 287.126 734.205 295.554C724.324 303.982 712.119 310.666 697.588 315.606C683.348 320.256 667.219 322.581 649.201 322.581H521.912V320.401C528.015 320.401 533.1 319.53 537.169 317.786C541.237 316.042 544.435 312.991 546.76 308.632C549.085 304.273 550.683 298.46 551.555 291.194C552.717 283.638 553.299 274.193 553.299 262.859V60.1572C553.299 48.8233 552.717 39.5231 551.555 32.2578C550.683 24.7022 549.085 18.7449 546.76 14.3857C544.435 10.0265 541.238 6.97512 537.169 5.23145C533.1 3.1972 528.015 2.17969 521.912 2.17969V0H631.328ZM659.227 141.674C650.218 145.161 641.209 148.794 632.2 152.572C623.191 156.06 615.053 160.128 607.788 164.777C600.813 169.427 595.001 174.804 590.352 180.907C585.992 187.01 583.812 194.42 583.812 203.139V262.859C583.812 283.202 585.557 297.152 589.044 304.708C592.531 312.264 599.07 316.042 608.66 316.042H644.842C658.21 316.042 670.125 313.862 680.587 309.503C691.34 305.144 700.349 299.041 707.614 291.194C715.17 283.348 720.837 274.048 724.615 263.296C728.684 252.543 730.718 240.918 730.718 228.422C730.718 204.592 724.324 185.556 711.537 171.316C699.041 157.076 681.604 147.195 659.227 141.674ZM602.558 6.53906C590.061 6.53906 583.813 15.8384 583.812 34.4375V176.548C587.009 169.864 592.096 164.197 599.07 159.547C606.045 154.897 613.891 150.537 622.609 146.469C631.618 142.11 640.773 137.751 650.072 133.392C659.662 129.032 668.381 123.801 676.228 117.698C684.074 111.595 690.468 104.33 695.408 95.9023C700.639 87.4746 703.255 77.3028 703.255 65.3877C703.255 45.6263 696.716 30.9505 683.639 21.3604C670.561 11.4795 652.688 6.5391 630.021 6.53906H602.558Z" fill="url(#paint2_linear_51_4307)"/>
<path d="M993.68 72.7988H991.5C988.594 60.3024 985.107 49.8399 981.038 41.4121C976.969 32.9844 971.883 26.1548 965.78 20.9238C959.677 15.693 952.267 12.0606 943.549 10.0264C935.121 7.70146 924.949 6.53906 913.034 6.53906H872.058C858.399 6.53915 851.569 15.8384 851.569 34.4375V154.752H904.752C921.898 154.752 933.959 151.41 940.934 144.726C948.199 138.042 951.831 126.562 951.831 110.288H954.011V205.754H951.831C951.831 189.48 948.199 178 940.934 171.316C933.959 164.632 922.043 161.29 905.188 161.29H851.569V288.144C851.569 306.742 858.399 316.042 872.058 316.042H921.753C933.668 316.042 943.84 315.025 952.268 312.99C960.986 310.665 968.396 306.887 974.499 301.656C980.602 296.425 985.687 289.596 989.756 281.168C993.824 272.74 997.313 262.279 1000.22 249.782H1002.4L988.885 322.581H789.669V320.401C795.772 320.401 800.857 319.53 804.926 317.786C808.994 316.042 812.192 312.991 814.517 308.632C816.841 303.982 818.44 298.024 819.312 290.759C820.474 283.203 821.056 273.758 821.056 262.424V60.1572C821.056 48.8233 820.474 39.5231 819.312 32.2578C818.44 24.7022 816.841 18.7449 814.517 14.3857C812.192 10.0265 808.994 6.97512 804.926 5.23145C800.857 3.1972 795.772 2.17969 789.669 2.17969V0H980.166L993.68 72.7988Z" fill="url(#paint3_linear_51_4307)"/>
<path d="M1271.78 72.3623L1270.04 72.7988C1267.13 60.3024 1263.65 49.8399 1259.58 41.4121C1255.51 32.9845 1250.42 26.1548 1244.32 20.9238C1238.22 15.6928 1230.81 12.0607 1222.09 10.0264C1213.66 7.70147 1203.49 6.53906 1191.57 6.53906H1185.04C1177.77 6.53906 1172.54 8.71814 1169.34 13.0771C1166.15 17.4363 1164.55 24.4117 1164.55 34.002V262.424C1164.55 273.758 1164.98 283.203 1165.85 290.759C1166.73 298.024 1168.32 303.836 1170.65 308.195C1173.26 312.555 1176.61 315.752 1180.68 317.786C1184.74 319.53 1189.83 320.401 1195.93 320.401V322.581H1102.65V320.401C1108.75 320.401 1113.83 319.53 1117.9 317.786C1121.97 315.752 1125.17 312.555 1127.49 308.195C1129.82 303.836 1131.42 298.024 1132.29 290.759C1133.45 283.203 1134.03 273.758 1134.03 262.424V34.002C1134.03 24.4117 1132.43 17.4363 1129.24 13.0771C1126.04 8.71807 1120.95 6.53906 1113.98 6.53906H1107C1095.38 6.53908 1085.21 7.70154 1076.49 10.0264C1068.06 12.0606 1060.8 15.693 1054.7 20.9238C1048.59 26.1548 1043.36 32.9845 1039 41.4121C1034.93 49.8399 1031.45 60.3024 1028.54 72.7988L1026.8 72.3623L1039.87 0H1258.71L1271.78 72.3623Z" fill="url(#paint4_linear_51_4307)"/>
<defs>
<linearGradient id="paint0_linear_51_4307" x1="635.905" y1="-39.4189" x2="635.905" y2="310.081" gradientUnits="userSpaceOnUse">
<stop stop-color="#FFE4A6"/>
<stop offset="1" stop-color="#FFE4A6" stop-opacity="0"/>
</linearGradient>
<linearGradient id="paint1_linear_51_4307" x1="635.905" y1="-39.4189" x2="635.905" y2="310.081" gradientUnits="userSpaceOnUse">
<stop stop-color="#FFE4A6"/>
<stop offset="1" stop-color="#FFE4A6" stop-opacity="0"/>
</linearGradient>
<linearGradient id="paint2_linear_51_4307" x1="635.905" y1="-39.4189" x2="635.905" y2="310.081" gradientUnits="userSpaceOnUse">
<stop stop-color="#FFE4A6"/>
<stop offset="1" stop-color="#FFE4A6" stop-opacity="0"/>
</linearGradient>
<linearGradient id="paint3_linear_51_4307" x1="635.905" y1="-39.4189" x2="635.905" y2="310.081" gradientUnits="userSpaceOnUse">
<stop stop-color="#FFE4A6"/>
<stop offset="1" stop-color="#FFE4A6" stop-opacity="0"/>
</linearGradient>
<linearGradient id="paint4_linear_51_4307" x1="635.905" y1="-39.4189" x2="635.905" y2="310.081" gradientUnits="userSpaceOnUse">
<stop stop-color="#FFE4A6"/>
<stop offset="1" stop-color="#FFE4A6" stop-opacity="0"/>
</linearGradient>
</defs>
</svg>
