<svg width="1171" height="571" viewBox="0 0 1171 571" fill="none" xmlns="http://www.w3.org/2000/svg">
<path d="M1171 226.093C1142.28 226.093 1119 252.949 1119 286.077C1119 319.205 1142.28 346.061 1171 346.061V571H0V346.061C28.7188 346.061 52 319.205 52 286.077C52 252.949 28.7188 226.093 0 226.093V0H1171V226.093Z" fill="#1E1E1E"/>
<path d="M1120 25V230.1C1093.49 230.713 1072.4 255.653 1072.4 286.028C1072.4 316.403 1093.49 341.343 1120 341.956V546H50V341.956C76.5055 341.343 97.6035 316.403 97.6035 286.028C97.6035 255.653 76.5055 230.713 50 230.1V25H1120Z" fill="#1E1E1E" stroke="#F0E1CE" stroke-width="2"/>
</svg>
