<svg width="172" height="117" viewBox="0 0 172 117" fill="none" xmlns="http://www.w3.org/2000/svg">
<g clip-path="url(#clip0_398_681)">
<path d="M103.661 18.3334C103.661 18.3334 106.352 16.3168 107.603 15.1606C110.289 12.6775 113.828 9.42957 115.333 6.04057C111.384 5.76517 107.358 5.91311 103.4 5.89035C95.3539 5.84483 87.3059 5.82662 79.2602 5.82435C71.3783 5.82207 63.4441 5.58992 55.569 5.97229C55.5576 5.97229 55.5462 5.97229 55.5349 5.97229C59.2812 11.28 63.7035 16.2099 69.1478 19.7536C74.592 23.2974 80.9649 25.7509 87.4265 25.0863C89.0858 24.9156 92.5772 24.6721 92.5772 24.6721C92.5772 24.6721 95.5838 27.3032 97.259 28.596C88.2118 32.0942 77.7307 30.9289 69.084 26.5293C63.8719 23.8778 59.2789 20.1132 55.4165 15.741C51.347 11.1343 48.5384 5.9996 45.7366 0.575834C45.6546 0.411961 45.6114 0.229879 45.5317 0H125.532C125.32 0.471137 125.161 0.878546 124.96 1.26319C122.75 5.56716 120.208 9.7118 117.206 13.5105C116.209 14.7714 106.782 22.997 106.782 22.997L103.661 18.3334Z" fill="url(#paint0_linear_398_681)"/>
<path d="M66.2756 37.5999C67.2293 37.5089 68.7474 37.5339 69.214 37.5339C69.214 37.5339 72.3776 37.5567 73.9572 37.5681C77.1209 37.5908 80.2823 37.6113 83.4459 37.6341C90.5904 37.6841 98.0057 38.3123 105.118 37.6045C104.793 36.4574 103.475 33.296 102.781 31.9872C101.793 30.1232 100.637 28.3433 99.2529 26.7456C94.405 21.1534 86.5869 18.7954 79.5539 21.5039C79.3719 21.5744 78.9963 21.7542 78.9963 21.7542C78.9963 21.7542 74.9882 20.0836 73.1196 19.023C72.9512 18.9274 72.7555 18.8546 72.5324 18.6475C77.9061 14.7464 84.9936 13.465 91.4348 15.0741C103.593 18.1103 110.062 30.4441 112.374 41.8311C112.449 42.202 112.547 42.5685 112.645 42.9349C112.757 43.3492 112.679 43.5859 112.204 43.5631C111.844 43.5472 111.484 43.5586 111.125 43.5586C94.5734 43.5586 78.0245 43.5722 61.4732 43.5586C60.8405 43.5586 60.21 43.5563 59.5773 43.5495C59.4362 43.5495 59.2837 43.5404 59.179 43.447C59.0379 43.3196 59.0538 43.0943 59.0856 42.9053C59.9619 37.4383 64.5436 27.4147 64.5436 27.4147L64.7393 27.0096L69.9833 29.7795L69.7716 30.3007C69.7716 30.3007 67.8483 34.393 66.8879 36.4414C66.724 36.7897 66.5578 37.0855 66.2779 37.5999H66.2756Z" fill="url(#paint1_linear_398_681)"/>
</g>
<path d="M18.4353 64.9968L37.4608 96.2283V70.8774C37.4608 69.1643 36.9337 67.7971 35.8795 66.7758C34.8582 65.7546 33.4581 65.2439 31.679 65.2439V64.9968H41.7601V65.2439C41.0683 65.2439 40.4917 65.3428 40.0305 65.5404C39.5693 65.7381 39.2069 66.1005 38.9433 66.6276C38.6798 67.1218 38.4821 67.7971 38.3503 68.6537C38.2515 69.4773 38.2021 70.5315 38.2021 71.8164V101.565H36.7196L17.7435 70.5809V95.6848C17.7435 97.3979 18.2541 98.7651 19.2754 99.7864C20.3296 100.808 21.7462 101.318 23.5253 101.318V101.565H13.4442V101.318C14.136 101.318 14.7126 101.219 15.1738 101.022C15.635 100.824 15.9974 100.478 16.261 99.984C16.5245 99.4899 16.7057 98.831 16.8046 98.0073C16.9363 97.1508 17.0022 96.0801 17.0022 94.7952V71.8164C17.0022 70.5315 16.9363 69.4773 16.8046 68.6537C16.7057 67.7971 16.5245 67.1218 16.261 66.6276C15.9974 66.1005 15.635 65.7381 15.1738 65.5404C14.7126 65.3428 14.136 65.2439 13.4442 65.2439V64.9968H18.4353ZM68.3727 73.2495H68.1256C67.7961 71.8328 67.4008 70.6468 66.9396 69.6914C66.4784 68.7361 65.9018 67.9619 65.21 67.3688C64.5181 66.7758 63.6781 66.364 62.6897 66.1334C61.7343 65.8699 60.5813 65.7381 59.2305 65.7381H54.5853C53.0369 65.7381 52.2627 66.7923 52.2627 68.9008V82.5398H58.2916C60.2353 82.5398 61.6025 82.161 62.3932 81.4033C63.2168 80.6455 63.6286 79.3442 63.6286 77.4993H63.8757V88.3216H63.6286C63.6286 86.4767 63.2168 85.1754 62.3932 84.4177C61.6025 83.66 60.2518 83.2811 58.341 83.2811H52.2627V97.6614C52.2627 99.7699 53.0369 100.824 54.5853 100.824H60.2189C61.5696 100.824 62.7227 100.709 63.6781 100.478C64.6664 100.215 65.5065 99.7864 66.1983 99.1934C66.8902 98.6004 67.4667 97.8262 67.9279 96.8708C68.3891 95.9154 68.7845 94.7294 69.1139 93.3127H69.361L67.8291 101.565H45.2455V101.318C45.9374 101.318 46.5139 101.219 46.9751 101.022C47.4364 100.824 47.7988 100.478 48.0623 99.984C48.3259 99.4569 48.5071 98.7815 48.6059 97.9579C48.7377 97.1014 48.8036 96.0307 48.8036 94.7458V71.8164C48.8036 70.5315 48.7377 69.4773 48.6059 68.6537C48.5071 67.7971 48.3259 67.1218 48.0623 66.6276C47.7988 66.1334 47.4364 65.7875 46.9751 65.5898C46.5139 65.3592 45.9374 65.2439 45.2455 65.2439V64.9968H66.8407L68.3727 73.2495ZM72.6094 101.318C73.3012 101.318 73.8778 101.219 74.339 101.022C74.8002 100.824 75.1626 100.478 75.4262 99.984C75.6897 99.4899 75.8709 98.831 75.9697 98.0073C76.1015 97.1508 76.1674 96.0801 76.1674 94.7952V71.8164C76.1674 70.5315 76.1015 69.4773 75.9697 68.6537C75.8709 67.7971 75.6897 67.1218 75.4262 66.6276C75.1626 66.1334 74.8002 65.7875 74.339 65.5898C73.8778 65.3592 73.3012 65.2439 72.6094 65.2439V64.9968H85.013C88.637 64.9968 91.5196 65.6557 93.661 66.9735C95.8024 68.2584 96.8731 70.2515 96.8731 72.953C96.8731 73.8754 96.6919 74.699 96.3295 75.4238C95.9671 76.1486 95.473 76.8075 94.847 77.4005C94.2211 77.9605 93.4963 78.4712 92.6727 78.9324C91.882 79.3936 91.0419 79.8219 90.1524 80.2173C91.6679 80.5138 93.0351 80.9915 94.254 81.6503C95.5059 82.2763 96.5601 83.0505 97.4167 83.9729C98.3062 84.8624 98.9816 85.9002 99.4428 87.0862C99.937 88.2722 100.184 89.5571 100.184 90.9407C100.184 92.4562 99.8875 93.8563 99.2945 95.1412C98.7015 96.426 97.8285 97.5461 96.6754 98.5015C95.5553 99.4569 94.1717 100.215 92.5244 100.775C90.9101 101.302 89.0817 101.565 87.0391 101.565H72.6094V101.318ZM86.545 100.824C88.0604 100.824 89.4112 100.577 90.5972 100.083C91.8161 99.5887 92.8374 98.8969 93.661 98.0073C94.5176 97.1178 95.16 96.0636 95.5883 94.8447C96.0495 93.6257 96.2801 92.3079 96.2801 90.8913C96.2801 88.1899 95.5553 86.032 94.1058 84.4177C92.6891 82.8034 90.7125 81.6833 88.1757 81.0573C87.1544 81.4527 86.1332 81.8645 85.1119 82.2928C84.0906 82.6881 83.1681 83.1493 82.3445 83.6764C81.5539 84.2036 80.895 84.813 80.3679 85.5049C79.8737 86.1967 79.6266 87.0368 79.6266 88.0251V94.7952C79.6266 97.1014 79.8243 98.6827 80.2196 99.5393C80.6149 100.396 81.3562 100.824 82.4434 100.824H86.545ZM79.6266 85.0107C79.989 84.253 80.5655 83.6105 81.3562 83.0834C82.1469 82.5563 83.0364 82.0622 84.0247 81.6009C85.046 81.1068 86.0838 80.6126 87.138 80.1184C88.2252 79.6242 89.2135 79.0312 90.103 78.3394C90.9925 77.6476 91.7173 76.824 92.2773 75.8686C92.8703 74.9132 93.1668 73.7601 93.1668 72.4094C93.1668 70.1691 92.4256 68.5054 90.9431 67.4183C89.4606 66.2981 87.4345 65.7381 84.8648 65.7381H81.7515C80.3349 65.7381 79.6266 66.7923 79.6266 68.9008V85.0107ZM126.09 73.2495H125.843C125.514 71.8328 125.118 70.6468 124.657 69.6914C124.196 68.7361 123.619 67.9619 122.927 67.3688C122.236 66.7758 121.395 66.364 120.407 66.1334C119.452 65.8699 118.299 65.7381 116.948 65.7381H112.303C110.754 65.7381 109.98 66.7923 109.98 68.9008V82.5398H116.009C117.953 82.5398 119.32 82.161 120.111 81.4033C120.934 80.6455 121.346 79.3442 121.346 77.4993H121.593V88.3216H121.346C121.346 86.4767 120.934 85.1754 120.111 84.4177C119.32 83.66 117.969 83.2811 116.058 83.2811H109.98V97.6614C109.98 99.7699 110.754 100.824 112.303 100.824H117.936C119.287 100.824 120.44 100.709 121.395 100.478C122.384 100.215 123.224 99.7864 123.916 99.1934C124.608 98.6004 125.184 97.8262 125.645 96.8708C126.107 95.9154 126.502 94.7294 126.831 93.3127H127.078L125.547 101.565H102.963V101.318C103.655 101.318 104.231 101.219 104.693 101.022C105.154 100.824 105.516 100.478 105.78 99.984C106.043 99.4569 106.224 98.7815 106.323 97.9579C106.455 97.1014 106.521 96.0307 106.521 94.7458V71.8164C106.521 70.5315 106.455 69.4773 106.323 68.6537C106.224 67.7971 106.043 67.1218 105.78 66.6276C105.516 66.1334 105.154 65.7875 104.693 65.5898C104.231 65.3592 103.655 65.2439 102.963 65.2439V64.9968H124.558L126.09 73.2495ZM156.134 64.9968L157.617 73.2L157.419 73.2495C157.089 71.8328 156.694 70.6468 156.233 69.6914C155.772 68.7361 155.195 67.9619 154.503 67.3688C153.811 66.7758 152.971 66.364 151.983 66.1334C151.028 65.8699 149.875 65.7381 148.524 65.7381H147.783C146.959 65.7381 146.366 65.9852 146.004 66.4793C145.641 66.9735 145.46 67.7642 145.46 68.8514V94.7458C145.46 96.0307 145.509 97.1014 145.608 97.9579C145.707 98.7815 145.888 99.4404 146.152 99.9346C146.448 100.429 146.827 100.791 147.288 101.022C147.75 101.219 148.326 101.318 149.018 101.318V101.565H138.443V101.318C139.135 101.318 139.711 101.219 140.172 101.022C140.634 100.791 140.996 100.429 141.26 99.9346C141.523 99.4404 141.704 98.7815 141.803 97.9579C141.935 97.1014 142.001 96.0307 142.001 94.7458V68.8514C142.001 67.7642 141.82 66.9735 141.457 66.4793C141.095 65.9852 140.518 65.7381 139.728 65.7381H138.937C137.619 65.7381 136.466 65.8699 135.478 66.1334C134.522 66.364 133.699 66.7758 133.007 67.3688C132.315 67.9619 131.722 68.7361 131.228 69.6914C130.767 70.6468 130.371 71.8328 130.042 73.2495L129.844 73.2L131.327 64.9968H156.134Z" fill="url(#paint2_linear_398_681)"/>
<defs>
<linearGradient id="paint0_linear_398_681" x1="85.5317" y1="0" x2="85.5317" y2="30.6468" gradientUnits="userSpaceOnUse">
<stop stop-color="#FFE4A6"/>
<stop offset="0.5" stop-color="#FFE4A6" stop-opacity="0.34"/>
<stop offset="1" stop-color="#FFE4A6"/>
</linearGradient>
<linearGradient id="paint1_linear_398_681" x1="85.877" y1="14.3963" x2="85.877" y2="43.5646" gradientUnits="userSpaceOnUse">
<stop stop-color="#FFE4A6"/>
<stop offset="0.5" stop-color="#FFE4A6" stop-opacity="0.34"/>
<stop offset="1" stop-color="#FFE4A6"/>
</linearGradient>
<linearGradient id="paint2_linear_398_681" x1="85.5319" y1="60.5654" x2="85.5319" y2="116.565" gradientUnits="userSpaceOnUse">
<stop stop-color="#FFE4A6"/>
<stop offset="0.5" stop-color="#FFE4A6" stop-opacity="0.34"/>
<stop offset="1" stop-color="#FFE4A6"/>
</linearGradient>
<clipPath id="clip0_398_681">
<rect width="80" height="43.5654" fill="white" transform="translate(45.5317)"/>
</clipPath>
</defs>
</svg>
