<svg width="145" height="37" viewBox="0 0 145 37" fill="none" xmlns="http://www.w3.org/2000/svg">
<path d="M4.9911 0L24.0166 31.2315V5.88063C24.0166 4.16749 23.4895 2.80029 22.4353 1.77901C21.414 0.75772 20.0139 0.24708 18.2348 0.24708V0H28.3159V0.24708C27.6241 0.24708 27.0475 0.34592 26.5863 0.54358C26.1251 0.74125 25.7627 1.10364 25.4991 1.63076C25.2356 2.12493 25.0379 2.80029 24.9061 3.65685C24.8073 4.48047 24.7579 5.53469 24.7579 6.81953V36.5685H23.2754L4.2993 5.58413V30.6879C4.2993 32.401 4.8099 33.7682 5.8312 34.7895C6.8854 35.8108 8.302 36.3214 10.0811 36.3214V36.5685H0V36.3214C0.6918 36.3214 1.2684 36.2226 1.7296 36.0249C2.1908 35.8272 2.5532 35.4813 2.8168 34.9872C3.0803 34.493 3.2615 33.8341 3.3604 33.0105C3.4921 32.1539 3.558 31.0832 3.558 29.7984V6.81953C3.558 5.53469 3.4921 4.48047 3.3604 3.65685C3.2615 2.80029 3.0803 2.12493 2.8168 1.63076C2.5532 1.10364 2.1908 0.74125 1.7296 0.54358C1.2684 0.34592 0.6918 0.24708 0 0.24708V0H4.9911ZM54.9285 8.25263H54.6814C54.3519 6.83603 53.9566 5.65003 53.4954 4.6946C53.0342 3.73921 52.4576 2.96501 51.7658 2.37201C51.0739 1.77901 50.2339 1.3672 49.2455 1.13659C48.2901 0.87303 47.1371 0.74125 45.7863 0.74125H41.1411C39.5927 0.74125 38.8185 1.79548 38.8185 3.90394V17.543H44.8474C46.7911 17.543 48.1583 17.1641 48.949 16.4064C49.7726 15.6487 50.1844 14.3474 50.1844 12.5025H50.4315V23.3248H50.1844C50.1844 21.4799 49.7726 20.1785 48.949 19.4208C48.1583 18.6631 46.8076 18.2842 44.8968 18.2842H38.8185V32.6646C38.8185 34.773 39.5927 35.8272 41.1411 35.8272H46.7747C48.1254 35.8272 49.2785 35.7119 50.2339 35.4813C51.2222 35.2178 52.0623 34.7895 52.7541 34.1965C53.446 33.6035 54.0225 32.8293 54.4837 31.8739C54.9449 30.9185 55.3403 29.7325 55.6697 28.3159H55.9168L54.3849 36.5685H31.8013V36.3214C32.4932 36.3214 33.0697 36.2226 33.5309 36.0249C33.9922 35.8272 34.3546 35.4813 34.6181 34.9872C34.8817 34.46 35.0629 33.7847 35.1617 32.9611C35.2935 32.1045 35.3594 31.0338 35.3594 29.749V6.81953C35.3594 5.53469 35.2935 4.48047 35.1617 3.65685C35.0629 2.80029 34.8817 2.12493 34.6181 1.63076C34.3546 1.13659 33.9922 0.79067 33.5309 0.593C33.0697 0.36239 32.4932 0.24708 31.8013 0.24708V0H53.3965L54.9285 8.25263ZM59.1652 36.3214C59.857 36.3214 60.4336 36.2226 60.8948 36.0249C61.356 35.8272 61.7184 35.4813 61.982 34.9872C62.2455 34.493 62.4267 33.8341 62.5255 33.0105C62.6573 32.1539 62.7232 31.0832 62.7232 29.7984V6.81953C62.7232 5.53469 62.6573 4.48047 62.5255 3.65685C62.4267 2.80029 62.2455 2.12493 61.982 1.63076C61.7184 1.13659 61.356 0.79067 60.8948 0.593C60.4336 0.36239 59.857 0.24708 59.1652 0.24708V0H71.5688C75.1928 0 78.0754 0.65889 80.2168 1.97667C82.3582 3.26151 83.4289 5.25466 83.4289 7.95613C83.4289 8.87853 83.2477 9.70223 82.8853 10.4269C82.5229 11.1517 82.0288 11.8106 81.4028 12.4036C80.7769 12.9637 80.0521 13.4743 79.2285 13.9355C78.4378 14.3968 77.5977 14.825 76.7082 15.2204C78.2237 15.5169 79.5909 15.9946 80.8098 16.6535C82.0617 17.2794 83.1159 18.0536 83.9725 18.9761C84.862 19.8656 85.5374 20.9033 85.9986 22.0893C86.4928 23.2753 86.7398 24.5602 86.7398 25.9439C86.7398 27.4593 86.4433 28.8595 85.8503 30.1443C85.2573 31.4291 84.3843 32.5493 83.2312 33.5046C82.1111 34.46 80.7275 35.2178 79.0802 35.7778C77.4659 36.3049 75.6375 36.5685 73.5949 36.5685H59.1652V36.3214ZM73.1008 35.8272C74.6162 35.8272 75.967 35.5802 77.153 35.086C78.3719 34.5918 79.3932 33.9 80.2168 33.0105C81.0734 32.121 81.7158 31.0667 82.1441 29.8478C82.6053 28.6288 82.8359 27.3111 82.8359 25.8944C82.8359 23.193 82.1111 21.0351 80.6616 19.4208C79.2449 17.8065 77.2683 16.6864 74.7315 16.0605C73.7102 16.4558 72.689 16.8676 71.6677 17.2959C70.6464 17.6912 69.7239 18.1525 68.9003 18.6796C68.1097 19.2067 67.4508 19.8162 66.9237 20.508C66.4295 21.1998 66.1824 22.0399 66.1824 23.0283V29.7984C66.1824 32.1045 66.3801 33.6858 66.7754 34.5424C67.1707 35.399 67.912 35.8272 68.9992 35.8272H73.1008ZM66.1824 20.0138C66.5448 19.2561 67.1213 18.6137 67.912 18.0866C68.7027 17.5595 69.5922 17.0653 70.5805 16.6041C71.6018 16.1099 72.6396 15.6157 73.6938 15.1215C74.781 14.6274 75.7693 14.0344 76.6588 13.3425C77.5483 12.6507 78.2731 11.8271 78.8331 10.8717C79.4261 9.91633 79.7226 8.76323 79.7226 7.41253C79.7226 5.1723 78.9814 3.5086 77.4989 2.42143C76.0164 1.30131 73.9903 0.74125 71.4206 0.74125H68.3073C66.8907 0.74125 66.1824 1.79548 66.1824 3.90394V20.0138ZM112.646 8.25263H112.399C112.07 6.83603 111.674 5.65003 111.213 4.6946C110.752 3.73921 110.175 2.96501 109.483 2.37201C108.792 1.77901 107.951 1.3672 106.963 1.13659C106.008 0.87303 104.855 0.74125 103.504 0.74125H98.8588C97.3098 0.74125 96.5358 1.79548 96.5358 3.90394V17.543H102.565C104.509 17.543 105.876 17.1641 106.667 16.4064C107.49 15.6487 107.902 14.3474 107.902 12.5025H108.149V23.3248H107.902C107.902 21.4799 107.49 20.1785 106.667 19.4208C105.876 18.6631 104.525 18.2842 102.614 18.2842H96.5358V32.6646C96.5358 34.773 97.3098 35.8272 98.8588 35.8272H104.492C105.843 35.8272 106.996 35.7119 107.951 35.4813C108.94 35.2178 109.78 34.7895 110.472 34.1965C111.164 33.6035 111.74 32.8293 112.201 31.8739C112.663 30.9185 113.058 29.7325 113.387 28.3159H113.634L112.103 36.5685H89.5188V36.3214C90.2108 36.3214 90.7868 36.2226 91.2488 36.0249C91.7098 35.8272 92.0718 35.4813 92.3358 34.9872C92.5988 34.46 92.7798 33.7847 92.8788 32.9611C93.0108 32.1045 93.0768 31.0338 93.0768 29.749V6.81953C93.0768 5.53469 93.0108 4.48047 92.8788 3.65685C92.7798 2.80029 92.5988 2.12493 92.3358 1.63076C92.0718 1.13659 91.7098 0.79067 91.2488 0.593C90.7868 0.36239 90.2108 0.24708 89.5188 0.24708V0H111.114L112.646 8.25263ZM142.69 0L144.173 8.20323L143.975 8.25263C143.645 6.83603 143.25 5.65003 142.789 4.6946C142.328 3.73921 141.751 2.96501 141.059 2.37201C140.367 1.77901 139.527 1.3672 138.539 1.13659C137.584 0.87303 136.431 0.74125 135.08 0.74125H134.339C133.515 0.74125 132.922 0.98834 132.56 1.4825C132.197 1.97667 132.016 2.76734 132.016 3.85452V29.749C132.016 31.0338 132.065 32.1045 132.164 32.9611C132.263 33.7847 132.444 34.4436 132.708 34.9377C133.004 35.4319 133.383 35.7943 133.844 36.0249C134.306 36.2226 134.882 36.3214 135.574 36.3214V36.5685H124.999V36.3214C125.691 36.3214 126.267 36.2226 126.728 36.0249C127.19 35.7943 127.552 35.4319 127.816 34.9377C128.079 34.4436 128.26 33.7847 128.359 32.9611C128.491 32.1045 128.557 31.0338 128.557 29.749V3.85452C128.557 2.76734 128.376 1.97667 128.013 1.4825C127.651 0.98834 127.074 0.74125 126.284 0.74125H125.493C124.175 0.74125 123.022 0.87303 122.034 1.13659C121.078 1.3672 120.255 1.77901 119.563 2.37201C118.871 2.96501 118.278 3.73921 117.784 4.6946C117.323 5.65003 116.927 6.83603 116.598 8.25263L116.4 8.20323L117.883 0H142.69Z" fill="url(#paint0_linear_428_4948)"/>
<defs>
<linearGradient id="paint0_linear_428_4948" x1="72.0877" y1="-4.43147" x2="72.0877" y2="51.5685" gradientUnits="userSpaceOnUse">
<stop stop-color="#FFE4A6"/>
<stop offset="0.5" stop-color="#FFE4A6" stop-opacity="0.34"/>
<stop offset="1" stop-color="#FFE4A6"/>
</linearGradient>
</defs>
</svg>
