<svg width="172" height="56" viewBox="0 0 172 56" fill="none" xmlns="http://www.w3.org/2000/svg">
<path d="M18.4353 4.43147L37.4608 35.663V10.3121C37.4608 8.59896 36.9337 7.23176 35.8795 6.21048C34.8582 5.18919 33.4581 4.67855 31.679 4.67855V4.43147H41.7601V4.67855C41.0683 4.67855 40.4917 4.77739 40.0305 4.97505C39.5693 5.17272 39.2069 5.53511 38.9433 6.06223C38.6798 6.5564 38.4821 7.23176 38.3503 8.08832C38.2515 8.91194 38.2021 9.96616 38.2021 11.251V41H36.7196L17.7435 10.0156V35.1194C17.7435 36.8325 18.2541 38.1997 19.2754 39.221C20.3296 40.2423 21.7462 40.7529 23.5253 40.7529V41H13.4442V40.7529C14.136 40.7529 14.7126 40.6541 15.1738 40.4564C15.635 40.2587 15.9974 39.9128 16.261 39.4187C16.5245 38.9245 16.7057 38.2656 16.8046 37.442C16.9363 36.5854 17.0022 35.5147 17.0022 34.2299V11.251C17.0022 9.96616 16.9363 8.91194 16.8046 8.08832C16.7057 7.23176 16.5245 6.5564 16.261 6.06223C15.9974 5.53511 15.635 5.17272 15.1738 4.97505C14.7126 4.77739 14.136 4.67855 13.4442 4.67855V4.43147H18.4353ZM68.3727 12.6841H68.1256C67.7961 11.2675 67.4008 10.0815 66.9396 9.12607C66.4784 8.17068 65.9018 7.39648 65.21 6.80348C64.5181 6.21048 63.6781 5.79867 62.6897 5.56806C61.7343 5.3045 60.5813 5.17272 59.2305 5.17272H54.5853C53.0369 5.17272 52.2627 6.22695 52.2627 8.33541V21.9745H58.2916C60.2353 21.9745 61.6025 21.5956 62.3932 20.8379C63.2168 20.0802 63.6286 18.7789 63.6286 16.934H63.8757V27.7563H63.6286C63.6286 25.9114 63.2168 24.61 62.3932 23.8523C61.6025 23.0946 60.2518 22.7157 58.341 22.7157H52.2627V37.0961C52.2627 39.2045 53.0369 40.2587 54.5853 40.2587H60.2189C61.5696 40.2587 62.7227 40.1434 63.6781 39.9128C64.6664 39.6493 65.5065 39.221 66.1983 38.628C66.8902 38.035 67.4667 37.2608 67.9279 36.3054C68.3891 35.35 68.7845 34.164 69.1139 32.7474H69.361L67.8291 41H45.2455V40.7529C45.9374 40.7529 46.5139 40.6541 46.9751 40.4564C47.4364 40.2587 47.7988 39.9128 48.0623 39.4187C48.3259 38.8915 48.5071 38.2162 48.6059 37.3926C48.7377 36.536 48.8036 35.4653 48.8036 34.1805V11.251C48.8036 9.96616 48.7377 8.91194 48.6059 8.08832C48.5071 7.23176 48.3259 6.5564 48.0623 6.06223C47.7988 5.56806 47.4364 5.22214 46.9751 5.02447C46.5139 4.79386 45.9374 4.67855 45.2455 4.67855V4.43147H66.8407L68.3727 12.6841ZM72.6094 40.7529C73.3012 40.7529 73.8778 40.6541 74.339 40.4564C74.8002 40.2587 75.1626 39.9128 75.4262 39.4187C75.6897 38.9245 75.8709 38.2656 75.9697 37.442C76.1015 36.5854 76.1674 35.5147 76.1674 34.2299V11.251C76.1674 9.96616 76.1015 8.91194 75.9697 8.08832C75.8709 7.23176 75.6897 6.5564 75.4262 6.06223C75.1626 5.56806 74.8002 5.22214 74.339 5.02447C73.8778 4.79386 73.3012 4.67855 72.6094 4.67855V4.43147H85.013C88.637 4.43147 91.5196 5.09036 93.661 6.40814C95.8024 7.69298 96.8731 9.68613 96.8731 12.3876C96.8731 13.31 96.6919 14.1337 96.3295 14.8584C95.9671 15.5832 95.473 16.2421 94.847 16.8351C94.2211 17.3952 93.4963 17.9058 92.6727 18.367C91.882 18.8283 91.0419 19.2565 90.1524 19.6519C91.6679 19.9484 93.0351 20.4261 94.254 21.085C95.5059 21.7109 96.5601 22.4851 97.4167 23.4076C98.3062 24.2971 98.9816 25.3348 99.4428 26.5208C99.937 27.7068 100.184 28.9917 100.184 30.3754C100.184 31.8908 99.8875 33.291 99.2945 34.5758C98.7015 35.8606 97.8285 36.9808 96.6754 37.9361C95.5553 38.8915 94.1717 39.6493 92.5244 40.2093C90.9101 40.7364 89.0817 41 87.0391 41H72.6094V40.7529ZM86.545 40.2587C88.0604 40.2587 89.4112 40.0117 90.5972 39.5175C91.8161 39.0233 92.8374 38.3315 93.661 37.442C94.5176 36.5525 95.16 35.4982 95.5883 34.2793C96.0495 33.0603 96.2801 31.7426 96.2801 30.3259C96.2801 27.6245 95.5553 25.4666 94.1058 23.8523C92.6891 22.238 90.7125 21.1179 88.1757 20.492C87.1544 20.8873 86.1332 21.2991 85.1119 21.7274C84.0906 22.1227 83.1681 22.584 82.3445 23.1111C81.5539 23.6382 80.895 24.2477 80.3679 24.9395C79.8737 25.6313 79.6266 26.4714 79.6266 27.4598V34.2299C79.6266 36.536 79.8243 38.1173 80.2196 38.9739C80.6149 39.8305 81.3562 40.2587 82.4434 40.2587H86.545ZM79.6266 24.4453C79.989 23.6876 80.5655 23.0452 81.3562 22.5181C82.1469 21.991 83.0364 21.4968 84.0247 21.0356C85.046 20.5414 86.0838 20.0472 87.138 19.553C88.2252 19.0589 89.2135 18.4659 90.103 17.774C90.9925 17.0822 91.7173 16.2586 92.2773 15.3032C92.8703 14.3478 93.1668 13.1947 93.1668 11.844C93.1668 9.60377 92.4256 7.94007 90.9431 6.8529C89.4606 5.73278 87.4345 5.17272 84.8648 5.17272H81.7515C80.3349 5.17272 79.6266 6.22695 79.6266 8.33541V24.4453ZM126.09 12.6841H125.843C125.514 11.2675 125.118 10.0815 124.657 9.12607C124.196 8.17068 123.619 7.39648 122.927 6.80348C122.236 6.21048 121.395 5.79867 120.407 5.56806C119.452 5.3045 118.299 5.17272 116.948 5.17272H112.303C110.754 5.17272 109.98 6.22695 109.98 8.33541V21.9745H116.009C117.953 21.9745 119.32 21.5956 120.111 20.8379C120.934 20.0802 121.346 18.7789 121.346 16.934H121.593V27.7563H121.346C121.346 25.9114 120.934 24.61 120.111 23.8523C119.32 23.0946 117.969 22.7157 116.058 22.7157H109.98V37.0961C109.98 39.2045 110.754 40.2587 112.303 40.2587H117.936C119.287 40.2587 120.44 40.1434 121.395 39.9128C122.384 39.6493 123.224 39.221 123.916 38.628C124.608 38.035 125.184 37.2608 125.645 36.3054C126.107 35.35 126.502 34.164 126.831 32.7474H127.078L125.547 41H102.963V40.7529C103.655 40.7529 104.231 40.6541 104.693 40.4564C105.154 40.2587 105.516 39.9128 105.78 39.4187C106.043 38.8915 106.224 38.2162 106.323 37.3926C106.455 36.536 106.521 35.4653 106.521 34.1805V11.251C106.521 9.96616 106.455 8.91194 106.323 8.08832C106.224 7.23176 106.043 6.5564 105.78 6.06223C105.516 5.56806 105.154 5.22214 104.693 5.02447C104.231 4.79386 103.655 4.67855 102.963 4.67855V4.43147H124.558L126.09 12.6841ZM156.134 4.43147L157.617 12.6347L157.419 12.6841C157.089 11.2675 156.694 10.0815 156.233 9.12607C155.772 8.17068 155.195 7.39648 154.503 6.80348C153.811 6.21048 152.971 5.79867 151.983 5.56806C151.028 5.3045 149.875 5.17272 148.524 5.17272H147.783C146.959 5.17272 146.366 5.41981 146.004 5.91397C145.641 6.40814 145.46 7.19881 145.46 8.28599V34.1805C145.46 35.4653 145.509 36.536 145.608 37.3926C145.707 38.2162 145.888 38.8751 146.152 39.3692C146.448 39.8634 146.827 40.2258 147.288 40.4564C147.75 40.6541 148.326 40.7529 149.018 40.7529V41H138.443V40.7529C139.135 40.7529 139.711 40.6541 140.172 40.4564C140.634 40.2258 140.996 39.8634 141.26 39.3692C141.523 38.8751 141.704 38.2162 141.803 37.3926C141.935 36.536 142.001 35.4653 142.001 34.1805V8.28599C142.001 7.19881 141.82 6.40814 141.457 5.91397C141.095 5.41981 140.518 5.17272 139.728 5.17272H138.937C137.619 5.17272 136.466 5.3045 135.478 5.56806C134.522 5.79867 133.699 6.21048 133.007 6.80348C132.315 7.39648 131.722 8.17068 131.228 9.12607C130.767 10.0815 130.371 11.2675 130.042 12.6841L129.844 12.6347L131.327 4.43147H156.134Z" fill="url(#paint0_linear_73_5)"/>
<defs>
<linearGradient id="paint0_linear_73_5" x1="85.5319" y1="0" x2="85.5319" y2="56" gradientUnits="userSpaceOnUse">
<stop stop-color="#FFE4A6"/>
<stop offset="0.5" stop-color="#FFE4A6" stop-opacity="0.34"/>
<stop offset="1" stop-color="#FFE4A6"/>
</linearGradient>
</defs>
</svg>
